<svg width="46" height="46" viewBox="0 0 46 46" fill="none" xmlns="http://www.w3.org/2000/svg">
<path d="M23 0C18.451 0 14.0042 1.34893 10.2219 3.8762C6.43956 6.40347 3.4916 9.99558 1.75078 14.1983C0.00996558 18.401 -0.445511 23.0255 0.441949 27.4871C1.32941 31.9486 3.51995 36.0468 6.73655 39.2634C9.95316 42.4801 14.0514 44.6706 18.5129 45.5581C22.9745 46.4455 27.599 45.99 31.8017 44.2492C36.0044 42.5084 39.5965 39.5604 42.1238 35.7781C44.6511 31.9958 46 27.549 46 23C46 16.9 43.5768 11.0499 39.2635 6.73654C34.9501 2.42321 29.1 0 23 0V0ZM23 42.1667C19.2092 42.1667 15.5035 41.0426 12.3516 38.9365C9.19964 36.8304 6.743 33.837 5.29232 30.3348C3.84164 26.8325 3.46208 22.9787 4.20163 19.2608C4.94118 15.5428 6.76662 12.1276 9.44713 9.44712C12.1276 6.76661 15.5428 4.94116 19.2608 4.20161C22.9787 3.46206 26.8325 3.84163 30.3348 5.29231C33.837 6.74299 36.8304 9.19963 38.9365 12.3516C41.0426 15.5035 42.1667 19.2092 42.1667 23C42.1667 25.517 41.6709 28.0094 40.7077 30.3348C39.7445 32.6602 38.3327 34.7731 36.5529 36.5529C34.7731 38.3327 32.6602 39.7445 30.3348 40.7077C28.0094 41.6709 25.517 42.1667 23 42.1667V42.1667Z" fill="#4BD37B"/>
<path d="M19.9666 34L10.4573 24.346C10.1457 23.9766 9.98293 23.5015 10.0014 23.0156C10.0199 22.5296 10.2183 22.0687 10.557 21.7248C10.8957 21.3809 11.3498 21.1795 11.8284 21.1607C12.3071 21.1419 12.7751 21.3072 13.1389 21.6235L19.9666 28.5551L32.8611 15.4643C33.2249 15.148 33.6929 14.9827 34.1716 15.0014C34.6502 15.0202 35.1043 15.2217 35.443 15.5655C35.7817 15.9094 35.9801 16.3703 35.9986 16.8563C36.0171 17.3422 35.8543 17.8173 35.5427 18.1867L19.9666 34Z" fill="#4BD37B"/>
</svg>
