<svg width="15" height="16" viewBox="0 0 15 16" fill="none" xmlns="http://www.w3.org/2000/svg">
<path fill-rule="evenodd" clip-rule="evenodd" d="M1.5 1.75C1.5 1.6837 1.52634 1.62011 1.57322 1.57322C1.62011 1.52634 1.6837 1.5 1.75 1.5H10.25C10.3163 1.5 10.3799 1.52634 10.4268 1.57322C10.4737 1.62011 10.5 1.6837 10.5 1.75V9.486C10.5 9.68491 10.579 9.87568 10.7197 10.0163C10.8603 10.157 11.0511 10.236 11.25 10.236C11.4489 10.236 11.6397 10.157 11.7803 10.0163C11.921 9.87568 12 9.68491 12 9.486V1.75C12 1.28587 11.8156 0.840752 11.4874 0.512563C11.1592 0.184374 10.7141 0 10.25 0H1.75C1.28587 0 0.840752 0.184374 0.512563 0.512563C0.184374 0.840752 0 1.28587 0 1.75V13.25C0 14.216 0.784 15 1.75 15H4.92C5.11891 15 5.30968 14.921 5.45033 14.7803C5.59098 14.6397 5.67 14.4489 5.67 14.25C5.67 14.0511 5.59098 13.8603 5.45033 13.7197C5.30968 13.579 5.11891 13.5 4.92 13.5H1.75C1.6837 13.5 1.62011 13.4737 1.57322 13.4268C1.52634 13.3799 1.5 13.3163 1.5 13.25V1.75ZM3.75 4C3.55109 4 3.36032 4.07902 3.21967 4.21967C3.07902 4.36032 3 4.55109 3 4.75C3 4.94891 3.07902 5.13968 3.21967 5.28033C3.36032 5.42098 3.55109 5.5 3.75 5.5H8.25C8.44891 5.5 8.63968 5.42098 8.78033 5.28033C8.92098 5.13968 9 4.94891 9 4.75C9 4.55109 8.92098 4.36032 8.78033 4.21967C8.63968 4.07902 8.44891 4 8.25 4H3.75ZM3 7.75C3 7.55109 3.07902 7.36032 3.21967 7.21967C3.36032 7.07902 3.55109 7 3.75 7H5.75C5.94891 7 6.13968 7.07902 6.28033 7.21967C6.42098 7.36032 6.5 7.55109 6.5 7.75C6.5 7.94891 6.42098 8.13968 6.28033 8.28033C6.13968 8.42098 5.94891 8.5 5.75 8.5H3.75C3.55109 8.5 3.36032 8.42098 3.21967 8.28033C3.07902 8.13968 3 7.94891 3 7.75ZM14.774 11.287C14.8445 11.2182 14.9008 11.1362 14.9396 11.0456C14.9784 10.955 14.999 10.8577 15.0002 10.7592C15.0014 10.6607 14.9832 10.5629 14.9466 10.4714C14.9101 10.3799 14.8558 10.2965 14.787 10.226C14.7182 10.1555 14.6362 10.0992 14.5456 10.0604C14.455 10.0216 14.3577 10.001 14.2592 9.99976C14.1607 9.99855 14.0629 10.0168 13.9714 10.0534C13.8799 10.0899 13.7965 10.1442 13.726 10.213L9.7 14.145L8.281 12.72C8.13908 12.5872 7.95116 12.5148 7.75685 12.5178C7.56254 12.5209 7.37699 12.5992 7.23932 12.7364C7.10164 12.8735 7.02258 13.0588 7.01879 13.2531C7.015 13.4474 7.08678 13.6356 7.219 13.778L9.162 15.728C9.30136 15.868 9.49032 15.9474 9.68786 15.9489C9.88539 15.9504 10.0755 15.8739 10.217 15.736L14.774 11.286V11.287Z" fill="
#39AFF3"/>
</svg>
